<svg xmlns="http://www.w3.org/2000/svg" xmlns:xlink="http://www.w3.org/1999/xlink" width="500" zoomAndPan="magnify" viewBox="0 0 375 149.999998" height="200" preserveAspectRatio="xMidYMid meet" version="1.0"><defs><g/></defs><g fill="#766a62" fill-opacity="1"><g transform="translate(0.000003125, 95.052933)"><g><path d="M 17.25 -1.953125 C 16.457031 -0.484375 15.875 0.828125 15.5 1.984375 C 15.132812 3.148438 14.953125 4.300781 14.953125 5.4375 C 14.953125 6.457031 15.125 7.519531 15.46875 8.625 C 15.8125 9.726562 16.296875 10.675781 16.921875 11.46875 C 17.085938 11.644531 17.171875 11.789062 17.171875 11.90625 C 17.171875 12.1875 17.054688 12.328125 16.828125 12.328125 C 16.546875 12.328125 16.234375 12.097656 15.890625 11.640625 C 15.554688 11.191406 15.242188 10.625 14.953125 9.9375 C 14.671875 9.257812 14.445312 8.523438 14.28125 7.734375 C 14.113281 6.941406 14.03125 6.207031 14.03125 5.53125 C 14.03125 4.21875 14.226562 2.925781 14.625 1.65625 C 15.019531 0.382812 15.671875 -0.988281 16.578125 -2.46875 C 13.003906 -5.75 11.21875 -10.140625 11.21875 -15.640625 C 11.21875 -20.335938 12.59375 -24.984375 15.34375 -29.578125 C 18.09375 -34.171875 21.988281 -38.304688 27.03125 -41.984375 C 30.09375 -44.253906 33.265625 -46 36.546875 -47.21875 C 39.835938 -48.4375 42.984375 -49.046875 45.984375 -49.046875 C 49.492188 -49.046875 52.226562 -48.09375 54.1875 -46.1875 C 56.144531 -44.289062 57.125 -41.644531 57.125 -38.25 C 57.125 -37.457031 57.078125 -36.773438 56.984375 -36.203125 C 56.898438 -35.640625 56.773438 -34.960938 56.609375 -34.171875 C 58.367188 -35.128906 59.910156 -35.988281 61.234375 -36.75 C 62.566406 -37.519531 63.6875 -38.160156 64.59375 -38.671875 C 65.613281 -39.296875 66.492188 -39.804688 67.234375 -40.203125 C 68.253906 -42.410156 69.429688 -44.460938 70.765625 -46.359375 C 72.097656 -48.265625 73.441406 -49.910156 74.796875 -51.296875 C 76.160156 -52.679688 77.503906 -53.785156 78.828125 -54.609375 C 80.160156 -55.429688 81.394531 -55.84375 82.53125 -55.84375 C 83.832031 -55.84375 84.484375 -55.304688 84.484375 -54.234375 C 84.484375 -53.546875 84.128906 -52.707031 83.421875 -51.71875 C 82.710938 -50.726562 81.734375 -49.648438 80.484375 -48.484375 C 79.242188 -47.328125 77.785156 -46.125 76.109375 -44.875 C 74.441406 -43.632812 72.644531 -42.445312 70.71875 -41.3125 C 70.601562 -40.851562 70.488281 -40.410156 70.375 -39.984375 C 70.257812 -39.566406 70.117188 -39.046875 69.953125 -38.421875 C 69.785156 -37.796875 69.585938 -37.03125 69.359375 -36.125 C 69.128906 -35.21875 68.847656 -34.082031 68.515625 -32.71875 C 67.773438 -29.4375 67.078125 -26.703125 66.421875 -24.515625 C 65.773438 -22.335938 65.066406 -20.453125 64.296875 -18.859375 C 63.535156 -17.273438 62.644531 -15.847656 61.625 -14.578125 C 60.601562 -13.304688 59.328125 -11.960938 57.796875 -10.546875 C 53.722656 -6.628906 49.148438 -3.609375 44.078125 -1.484375 C 39.003906 0.640625 33.890625 1.703125 28.734375 1.703125 C 26.296875 1.703125 24.195312 1.414062 22.4375 0.84375 C 20.6875 0.28125 18.957031 -0.648438 17.25 -1.953125 Z M 66.8125 -39.1875 C 66.351562 -38.90625 65.953125 -38.664062 65.609375 -38.46875 C 65.273438 -38.269531 64.9375 -38.066406 64.59375 -37.859375 C 64.257812 -37.660156 63.878906 -37.445312 63.453125 -37.21875 C 63.023438 -37 62.53125 -36.71875 61.96875 -36.375 C 61.0625 -35.863281 60.320312 -35.4375 59.75 -35.09375 C 59.1875 -34.757812 58.707031 -34.476562 58.3125 -34.25 C 57.914062 -34.03125 57.570312 -33.832031 57.28125 -33.65625 C 57 -33.488281 56.691406 -33.320312 56.359375 -33.15625 C 55.566406 -30.09375 54.316406 -27.15625 52.609375 -24.34375 C 50.910156 -21.539062 49 -19.046875 46.875 -16.859375 C 44.75 -14.679688 42.492188 -12.941406 40.109375 -11.640625 C 37.734375 -10.335938 35.441406 -9.6875 33.234375 -9.6875 C 30.453125 -9.6875 28.300781 -10.847656 26.78125 -13.171875 C 24.675781 -11.191406 22.929688 -9.40625 21.546875 -7.8125 C 20.160156 -6.226562 18.898438 -4.5625 17.765625 -2.8125 C 20.648438 -0.3125 24.332031 0.9375 28.8125 0.9375 C 34.03125 0.9375 39.0625 -0.519531 43.90625 -3.4375 C 48.75 -6.351562 52.925781 -10.445312 56.4375 -15.71875 C 57.226562 -16.914062 57.921875 -18.007812 58.515625 -19 C 59.117188 -19.988281 59.703125 -21.117188 60.265625 -22.390625 C 60.828125 -23.671875 61.460938 -25.242188 62.171875 -27.109375 C 62.878906 -28.984375 63.773438 -31.363281 64.859375 -34.25 C 65.023438 -34.757812 65.273438 -35.453125 65.609375 -36.328125 C 65.953125 -37.210938 66.351562 -38.164062 66.8125 -39.1875 Z M 55.421875 -32.5625 C 48.335938 -28.414062 42.582031 -24.867188 38.15625 -21.921875 C 33.738281 -18.984375 30.226562 -16.320312 27.625 -13.9375 C 28.8125 -11.5625 30.796875 -10.375 33.578125 -10.375 C 35.503906 -10.375 37.570312 -10.992188 39.78125 -12.234375 C 41.988281 -13.484375 44.113281 -15.140625 46.15625 -17.203125 C 48.195312 -19.273438 50.035156 -21.644531 51.671875 -24.3125 C 53.316406 -26.976562 54.566406 -29.726562 55.421875 -32.5625 Z M 50.578125 -33.484375 C 50.628906 -33.597656 50.65625 -33.796875 50.65625 -34.078125 C 50.65625 -35.441406 50.21875 -36.519531 49.34375 -37.3125 C 48.46875 -38.101562 47.289062 -38.5 45.8125 -38.5 C 43.71875 -38.5 41.550781 -37.832031 39.3125 -36.5 C 37.070312 -35.175781 35.03125 -33.460938 33.1875 -31.359375 C 31.351562 -29.265625 29.835938 -26.96875 28.640625 -24.46875 C 27.453125 -21.976562 26.859375 -19.570312 26.859375 -17.25 C 26.859375 -16.738281 26.882812 -16.300781 26.9375 -15.9375 C 27 -15.570312 27.113281 -15.160156 27.28125 -14.703125 C 28.8125 -16.066406 30.453125 -17.410156 32.203125 -18.734375 C 33.960938 -20.066406 35.960938 -21.484375 38.203125 -22.984375 C 40.441406 -24.492188 42.976562 -26.097656 45.8125 -27.796875 C 48.644531 -29.492188 51.929688 -31.421875 55.671875 -33.578125 C 55.953125 -34.816406 56.132812 -35.75 56.21875 -36.375 C 56.3125 -37 56.359375 -37.679688 56.359375 -38.421875 C 56.359375 -41.484375 55.453125 -43.890625 53.640625 -45.640625 C 51.828125 -47.398438 49.390625 -48.28125 46.328125 -48.28125 C 43.828125 -48.28125 41.316406 -47.785156 38.796875 -46.796875 C 36.273438 -45.804688 33.820312 -44.457031 31.4375 -42.75 C 29.0625 -41.050781 26.828125 -39.039062 24.734375 -36.71875 C 22.640625 -34.394531 20.828125 -31.929688 19.296875 -29.328125 C 17.765625 -26.722656 16.546875 -24.015625 15.640625 -21.203125 C 14.734375 -18.398438 14.28125 -15.640625 14.28125 -12.921875 C 14.28125 -8.785156 15.242188 -5.640625 17.171875 -3.484375 C 18.128906 -4.953125 19.414062 -6.609375 21.03125 -8.453125 C 22.644531 -10.296875 24.414062 -12.097656 26.34375 -13.859375 C 25.550781 -15.390625 25.15625 -16.945312 25.15625 -18.53125 C 25.15625 -21.019531 25.75 -23.507812 26.9375 -26 C 28.132812 -28.5 29.707031 -30.738281 31.65625 -32.71875 C 33.613281 -34.707031 35.796875 -36.3125 38.203125 -37.53125 C 40.609375 -38.75 43.0625 -39.359375 45.5625 -39.359375 C 47.3125 -39.359375 48.710938 -38.890625 49.765625 -37.953125 C 50.816406 -37.015625 51.34375 -35.753906 51.34375 -34.171875 C 51.34375 -33.148438 51.144531 -32.640625 50.75 -32.640625 C 50.570312 -32.640625 50.484375 -32.753906 50.484375 -32.984375 Z M 71.0625 -42.328125 C 72.875 -43.398438 74.546875 -44.519531 76.078125 -45.6875 C 77.609375 -46.851562 78.9375 -47.972656 80.0625 -49.046875 C 81.195312 -50.117188 82.085938 -51.09375 82.734375 -51.96875 C 83.390625 -52.851562 83.71875 -53.578125 83.71875 -54.140625 C 83.71875 -54.828125 83.320312 -55.171875 82.53125 -55.171875 C 81.625 -55.171875 80.628906 -54.828125 79.546875 -54.140625 C 78.472656 -53.460938 77.410156 -52.53125 76.359375 -51.34375 C 75.316406 -50.15625 74.328125 -48.78125 73.390625 -47.21875 C 72.460938 -45.65625 71.6875 -44.023438 71.0625 -42.328125 Z M 71.0625 -42.328125 "/></g></g></g><g fill="#766a62" fill-opacity="1"><g transform="translate(60.092285, 95.052933)"><g><path d="M 27.875 -22.1875 C 28.332031 -22.070312 28.703125 -22 28.984375 -21.96875 C 29.265625 -21.945312 29.632812 -21.9375 30.09375 -21.9375 C 30.601562 -21.9375 31.054688 -21.945312 31.453125 -21.96875 C 31.847656 -22 32.359375 -22.070312 32.984375 -22.1875 L 25.671875 -10.03125 C 24.421875 -7.9375 23.46875 -6.164062 22.8125 -4.71875 C 22.164062 -3.269531 21.84375 -2.234375 21.84375 -1.609375 C 21.84375 -0.304688 22.378906 0.34375 23.453125 0.34375 C 24.023438 0.34375 24.765625 0.00390625 25.671875 -0.671875 C 26.578125 -1.359375 27.609375 -2.296875 28.765625 -3.484375 C 29.929688 -4.671875 31.148438 -6.054688 32.421875 -7.640625 C 33.703125 -9.234375 34.960938 -10.960938 36.203125 -12.828125 C 36.316406 -13.117188 36.460938 -13.265625 36.640625 -13.265625 C 36.804688 -13.265625 36.890625 -13.175781 36.890625 -13 C 36.890625 -12.945312 36.675781 -12.609375 36.25 -11.984375 C 35.820312 -11.359375 35.296875 -10.632812 34.671875 -9.8125 C 34.054688 -8.988281 33.394531 -8.125 32.6875 -7.21875 C 31.976562 -6.3125 31.367188 -5.550781 30.859375 -4.9375 C 29.046875 -2.78125 27.554688 -1.257812 26.390625 -0.375 C 25.234375 0.5 24.144531 0.9375 23.125 0.9375 C 21.820312 0.9375 20.769531 0.46875 19.96875 -0.46875 C 19.175781 -1.40625 18.78125 -2.609375 18.78125 -4.078125 C 18.78125 -4.929688 18.878906 -5.710938 19.078125 -6.421875 C 19.273438 -7.128906 19.628906 -7.960938 20.140625 -8.921875 C 18.722656 -6.941406 17.503906 -5.328125 16.484375 -4.078125 C 15.460938 -2.828125 14.539062 -1.820312 13.71875 -1.0625 C 12.90625 -0.300781 12.171875 0.21875 11.515625 0.5 C 10.867188 0.789062 10.203125 0.9375 9.515625 0.9375 C 8.046875 0.9375 6.8125 0.3125 5.8125 -0.9375 C 4.820312 -2.1875 4.328125 -3.769531 4.328125 -5.6875 C 4.328125 -8.238281 5.289062 -10.734375 7.21875 -13.171875 C 9.144531 -15.609375 11.925781 -17.820312 15.5625 -19.8125 C 18.894531 -21.625 21.554688 -22.53125 23.546875 -22.53125 C 25.242188 -22.53125 26.09375 -21.707031 26.09375 -20.0625 C 26.09375 -19.550781 25.976562 -18.925781 25.75 -18.1875 Z M 23.625 -21.9375 C 22.78125 -21.9375 21.789062 -21.59375 20.65625 -20.90625 C 19.519531 -20.226562 18.359375 -19.335938 17.171875 -18.234375 C 15.984375 -17.128906 14.789062 -15.867188 13.59375 -14.453125 C 12.40625 -13.035156 11.359375 -11.601562 10.453125 -10.15625 C 9.546875 -8.707031 8.804688 -7.300781 8.234375 -5.9375 C 7.671875 -4.582031 7.390625 -3.394531 7.390625 -2.375 C 7.390625 -0.5625 8.1875 0.34375 9.78125 0.34375 C 10.34375 0.34375 10.921875 0.1875 11.515625 -0.125 C 12.109375 -0.4375 12.800781 -0.972656 13.59375 -1.734375 C 14.394531 -2.503906 15.289062 -3.484375 16.28125 -4.671875 C 17.269531 -5.859375 18.414062 -7.363281 19.71875 -9.1875 C 23.570312 -14.34375 25.5 -17.910156 25.5 -19.890625 C 25.5 -21.253906 24.875 -21.9375 23.625 -21.9375 Z M 23.625 -21.9375 "/></g></g></g><g fill="#766a62" fill-opacity="1"><g transform="translate(89.330965, 95.052933)"><g><path d="M 19.125 -9.859375 C 13.914062 -2.660156 10.0625 0.9375 7.5625 0.9375 C 6.375 0.9375 5.394531 0.5 4.625 -0.375 C 3.863281 -1.257812 3.484375 -2.410156 3.484375 -3.828125 C 3.484375 -4.566406 3.523438 -5.234375 3.609375 -5.828125 C 3.691406 -6.421875 4.003906 -7.238281 4.546875 -8.28125 C 5.085938 -9.332031 5.910156 -10.789062 7.015625 -12.65625 C 8.117188 -14.53125 9.691406 -17.164062 11.734375 -20.5625 C 12.691406 -22.207031 13.75 -23.992188 14.90625 -25.921875 C 16.070312 -27.847656 17.222656 -29.789062 18.359375 -31.75 C 19.492188 -33.707031 20.582031 -35.59375 21.625 -37.40625 C 22.675781 -39.21875 23.597656 -40.832031 24.390625 -42.25 C 24.847656 -42.132812 25.21875 -42.046875 25.5 -41.984375 C 25.78125 -41.929688 26.148438 -41.90625 26.609375 -41.90625 C 27.234375 -41.90625 27.726562 -41.929688 28.09375 -41.984375 C 28.457031 -42.046875 28.925781 -42.191406 29.5 -42.421875 C 25.644531 -35.953125 22.382812 -30.507812 19.71875 -26.09375 C 17.050781 -21.675781 14.867188 -18.019531 13.171875 -15.125 C 11.472656 -12.238281 10.15625 -9.972656 9.21875 -8.328125 C 8.28125 -6.679688 7.597656 -5.421875 7.171875 -4.546875 C 6.753906 -3.671875 6.503906 -3.035156 6.421875 -2.640625 C 6.335938 -2.242188 6.296875 -1.875 6.296875 -1.53125 C 6.296875 -0.28125 6.832031 0.34375 7.90625 0.34375 C 10.226562 0.34375 14.476562 -4.046875 20.65625 -12.828125 C 20.769531 -13.117188 20.941406 -13.265625 21.171875 -13.265625 C 21.273438 -13.265625 21.328125 -13.175781 21.328125 -13 C 21.328125 -12.832031 21.1875 -12.609375 20.90625 -12.328125 Z M 19.125 -9.859375 "/></g></g></g><g fill="#766a62" fill-opacity="1"><g transform="translate(102.930356, 95.052933)"><g><path d="M 23.03125 -22.53125 L 22.6875 -21.9375 L 17.25 -21.9375 L 7.984375 -6.125 C 6.859375 -4.195312 6.296875 -2.664062 6.296875 -1.53125 C 6.296875 -0.28125 6.945312 0.34375 8.25 0.34375 C 8.8125 0.34375 9.546875 0.03125 10.453125 -0.59375 C 11.359375 -1.21875 12.363281 -2.109375 13.46875 -3.265625 C 14.570312 -4.429688 15.757812 -5.820312 17.03125 -7.4375 C 18.3125 -9.050781 19.632812 -10.847656 21 -12.828125 C 21.21875 -13.117188 21.382812 -13.265625 21.5 -13.265625 C 21.675781 -13.265625 21.765625 -13.175781 21.765625 -13 C 21.765625 -12.882812 21.617188 -12.660156 21.328125 -12.328125 L 19.546875 -9.859375 C 16.828125 -6.117188 14.53125 -3.382812 12.65625 -1.65625 C 10.789062 0.0703125 9.175781 0.9375 7.8125 0.9375 C 6.507812 0.9375 5.421875 0.46875 4.546875 -0.46875 C 3.671875 -1.40625 3.234375 -2.582031 3.234375 -4 C 3.234375 -5.695312 3.96875 -7.765625 5.4375 -10.203125 L 12.40625 -21.9375 L 8.15625 -21.9375 L 8.578125 -22.53125 L 12.75 -22.53125 L 17.59375 -30.59375 C 18.050781 -30.488281 18.445312 -30.40625 18.78125 -30.34375 C 19.125 -30.289062 19.519531 -30.265625 19.96875 -30.265625 C 20.425781 -30.265625 20.820312 -30.289062 21.15625 -30.34375 C 21.5 -30.40625 21.898438 -30.488281 22.359375 -30.59375 L 17.59375 -22.53125 Z M 23.03125 -22.53125 "/></g></g></g><g fill="#766a62" fill-opacity="1"><g transform="translate(116.954724, 95.052933)"><g><path d="M 27.875 -22.1875 C 28.332031 -22.070312 28.703125 -22 28.984375 -21.96875 C 29.265625 -21.945312 29.632812 -21.9375 30.09375 -21.9375 C 30.601562 -21.9375 31.054688 -21.945312 31.453125 -21.96875 C 31.847656 -22 32.359375 -22.070312 32.984375 -22.1875 L 25.671875 -10.03125 C 24.421875 -7.9375 23.46875 -6.164062 22.8125 -4.71875 C 22.164062 -3.269531 21.84375 -2.234375 21.84375 -1.609375 C 21.84375 -0.304688 22.378906 0.34375 23.453125 0.34375 C 24.023438 0.34375 24.765625 0.00390625 25.671875 -0.671875 C 26.578125 -1.359375 27.609375 -2.296875 28.765625 -3.484375 C 29.929688 -4.671875 31.148438 -6.054688 32.421875 -7.640625 C 33.703125 -9.234375 34.960938 -10.960938 36.203125 -12.828125 C 36.316406 -13.117188 36.460938 -13.265625 36.640625 -13.265625 C 36.804688 -13.265625 36.890625 -13.175781 36.890625 -13 C 36.890625 -12.945312 36.675781 -12.609375 36.25 -11.984375 C 35.820312 -11.359375 35.296875 -10.632812 34.671875 -9.8125 C 34.054688 -8.988281 33.394531 -8.125 32.6875 -7.21875 C 31.976562 -6.3125 31.367188 -5.550781 30.859375 -4.9375 C 29.046875 -2.78125 27.554688 -1.257812 26.390625 -0.375 C 25.234375 0.5 24.144531 0.9375 23.125 0.9375 C 21.820312 0.9375 20.769531 0.46875 19.96875 -0.46875 C 19.175781 -1.40625 18.78125 -2.609375 18.78125 -4.078125 C 18.78125 -4.929688 18.878906 -5.710938 19.078125 -6.421875 C 19.273438 -7.128906 19.628906 -7.960938 20.140625 -8.921875 C 18.722656 -6.941406 17.503906 -5.328125 16.484375 -4.078125 C 15.460938 -2.828125 14.539062 -1.820312 13.71875 -1.0625 C 12.90625 -0.300781 12.171875 0.21875 11.515625 0.5 C 10.867188 0.789062 10.203125 0.9375 9.515625 0.9375 C 8.046875 0.9375 6.8125 0.3125 5.8125 -0.9375 C 4.820312 -2.1875 4.328125 -3.769531 4.328125 -5.6875 C 4.328125 -8.238281 5.289062 -10.734375 7.21875 -13.171875 C 9.144531 -15.609375 11.925781 -17.820312 15.5625 -19.8125 C 18.894531 -21.625 21.554688 -22.53125 23.546875 -22.53125 C 25.242188 -22.53125 26.09375 -21.707031 26.09375 -20.0625 C 26.09375 -19.550781 25.976562 -18.925781 25.75 -18.1875 Z M 23.625 -21.9375 C 22.78125 -21.9375 21.789062 -21.59375 20.65625 -20.90625 C 19.519531 -20.226562 18.359375 -19.335938 17.171875 -18.234375 C 15.984375 -17.128906 14.789062 -15.867188 13.59375 -14.453125 C 12.40625 -13.035156 11.359375 -11.601562 10.453125 -10.15625 C 9.546875 -8.707031 8.804688 -7.300781 8.234375 -5.9375 C 7.671875 -4.582031 7.390625 -3.394531 7.390625 -2.375 C 7.390625 -0.5625 8.1875 0.34375 9.78125 0.34375 C 10.34375 0.34375 10.921875 0.1875 11.515625 -0.125 C 12.109375 -0.4375 12.800781 -0.972656 13.59375 -1.734375 C 14.394531 -2.503906 15.289062 -3.484375 16.28125 -4.671875 C 17.269531 -5.859375 18.414062 -7.363281 19.71875 -9.1875 C 23.570312 -14.34375 25.5 -17.910156 25.5 -19.890625 C 25.5 -21.253906 24.875 -21.9375 23.625 -21.9375 Z M 23.625 -21.9375 "/></g></g></g><g fill="#766a62" fill-opacity="1"><g transform="translate(146.193404, 95.052933)"><g><path d="M 11.734375 -9.6875 C 15.410156 -15.632812 17.25 -19.289062 17.25 -20.65625 C 17.25 -21.507812 16.910156 -21.9375 16.234375 -21.9375 C 15.609375 -21.9375 14.503906 -21.097656 12.921875 -19.421875 C 11.335938 -17.753906 9.664062 -15.613281 7.90625 -13 C 7.5625 -12.601562 7.363281 -12.40625 7.3125 -12.40625 C 7.144531 -12.40625 7.0625 -12.492188 7.0625 -12.671875 C 7.0625 -12.773438 7.113281 -12.882812 7.21875 -13 L 7.984375 -14.03125 C 10.203125 -17.144531 11.960938 -19.335938 13.265625 -20.609375 C 14.566406 -21.890625 15.671875 -22.53125 16.578125 -22.53125 C 17.535156 -22.53125 18.335938 -22.101562 18.984375 -21.25 C 19.640625 -20.394531 19.96875 -19.375 19.96875 -18.1875 C 19.96875 -17.164062 19.738281 -16.128906 19.28125 -15.078125 C 18.832031 -14.035156 18.015625 -12.609375 16.828125 -10.796875 C 18.472656 -13.054688 19.90625 -14.9375 21.125 -16.4375 C 22.34375 -17.945312 23.429688 -19.15625 24.390625 -20.0625 C 25.359375 -20.96875 26.222656 -21.601562 26.984375 -21.96875 C 27.753906 -22.34375 28.503906 -22.53125 29.234375 -22.53125 C 30.484375 -22.53125 31.519531 -22.03125 32.34375 -21.03125 C 33.164062 -20.039062 33.578125 -18.8125 33.578125 -17.34375 C 33.578125 -16.769531 33.519531 -16.226562 33.40625 -15.71875 C 33.289062 -15.207031 33.09375 -14.625 32.8125 -13.96875 C 32.53125 -13.320312 32.144531 -12.601562 31.65625 -11.8125 C 31.175781 -11.019531 30.539062 -10.03125 29.75 -8.84375 C 28.894531 -7.539062 28.195312 -6.476562 27.65625 -5.65625 C 27.125 -4.832031 26.726562 -4.164062 26.46875 -3.65625 C 26.21875 -3.144531 26.050781 -2.71875 25.96875 -2.375 C 25.882812 -2.039062 25.84375 -1.703125 25.84375 -1.359375 C 25.84375 -0.222656 26.410156 0.34375 27.546875 0.34375 C 28.671875 0.34375 30.394531 -0.875 32.71875 -3.3125 C 35.039062 -5.75 37.566406 -8.921875 40.296875 -12.828125 C 40.398438 -13.117188 40.539062 -13.265625 40.71875 -13.265625 C 40.882812 -13.265625 40.96875 -13.175781 40.96875 -13 C 40.96875 -12.945312 40.753906 -12.609375 40.328125 -11.984375 C 39.898438 -11.359375 39.375 -10.632812 38.75 -9.8125 C 38.132812 -8.988281 37.472656 -8.125 36.765625 -7.21875 C 36.054688 -6.3125 35.445312 -5.550781 34.9375 -4.9375 C 33.125 -2.78125 31.632812 -1.257812 30.46875 -0.375 C 29.3125 0.5 28.222656 0.9375 27.203125 0.9375 C 25.898438 0.9375 24.835938 0.457031 24.015625 -0.5 C 23.191406 -1.46875 22.78125 -2.660156 22.78125 -4.078125 C 22.78125 -4.703125 22.820312 -5.253906 22.90625 -5.734375 C 22.988281 -6.210938 23.203125 -6.789062 23.546875 -7.46875 C 23.890625 -8.15625 24.367188 -8.992188 24.984375 -9.984375 C 25.609375 -10.972656 26.460938 -12.265625 27.546875 -13.859375 C 28.960938 -15.898438 29.878906 -17.328125 30.296875 -18.140625 C 30.722656 -18.960938 30.9375 -19.660156 30.9375 -20.234375 C 30.9375 -21.367188 30.34375 -21.9375 29.15625 -21.9375 C 28.1875 -21.9375 27.035156 -21.410156 25.703125 -20.359375 C 24.378906 -19.304688 22.910156 -17.816406 21.296875 -15.890625 C 19.679688 -13.960938 17.953125 -11.597656 16.109375 -8.796875 C 14.265625 -5.992188 12.378906 -2.863281 10.453125 0.59375 C 9.941406 0.539062 9.515625 0.5 9.171875 0.46875 C 8.835938 0.4375 8.441406 0.421875 7.984375 0.421875 C 7.535156 0.421875 7.125 0.421875 6.75 0.421875 C 6.382812 0.421875 5.890625 0.476562 5.265625 0.59375 Z M 11.734375 -9.6875 "/></g></g></g><g fill="#766a62" fill-opacity="1"><g transform="translate(179.426907, 95.052933)"><g><path d="M 40.125 -42.25 C 40.6875 -42.070312 41.132812 -41.953125 41.46875 -41.890625 C 41.8125 -41.835938 42.269531 -41.8125 42.84375 -41.8125 C 43.238281 -41.8125 43.617188 -41.828125 43.984375 -41.859375 C 44.359375 -41.890625 44.828125 -41.929688 45.390625 -41.984375 C 41.929688 -36.546875 38.953125 -31.816406 36.453125 -27.796875 C 33.960938 -23.773438 31.835938 -20.332031 30.078125 -17.46875 C 28.328125 -14.601562 26.898438 -12.234375 25.796875 -10.359375 C 24.691406 -8.492188 23.84375 -6.976562 23.25 -5.8125 C 22.65625 -4.65625 22.242188 -3.75 22.015625 -3.09375 C 21.785156 -2.445312 21.671875 -1.925781 21.671875 -1.53125 C 21.671875 -0.28125 22.238281 0.34375 23.375 0.34375 C 23.9375 0.34375 24.671875 0.03125 25.578125 -0.59375 C 26.484375 -1.21875 27.488281 -2.109375 28.59375 -3.265625 C 29.707031 -4.429688 30.914062 -5.820312 32.21875 -7.4375 C 33.519531 -9.050781 34.847656 -10.847656 36.203125 -12.828125 C 36.316406 -13.117188 36.460938 -13.265625 36.640625 -13.265625 C 36.804688 -13.265625 36.890625 -13.175781 36.890625 -13 C 36.890625 -12.882812 36.75 -12.660156 36.46875 -12.328125 L 34.6875 -9.859375 C 31.90625 -6.003906 29.609375 -3.238281 27.796875 -1.5625 C 25.984375 0.101562 24.425781 0.9375 23.125 0.9375 C 21.820312 0.9375 20.769531 0.457031 19.96875 -0.5 C 19.175781 -1.46875 18.78125 -2.691406 18.78125 -4.171875 C 18.78125 -5.015625 18.878906 -5.804688 19.078125 -6.546875 C 19.273438 -7.285156 19.6875 -8.21875 20.3125 -9.34375 C 18.957031 -7.363281 17.753906 -5.722656 16.703125 -4.421875 C 15.648438 -3.117188 14.695312 -2.066406 13.84375 -1.265625 C 13 -0.472656 12.238281 0.0859375 11.5625 0.421875 C 10.882812 0.765625 10.203125 0.9375 9.515625 0.9375 C 8.046875 0.9375 6.8125 0.3125 5.8125 -0.9375 C 4.820312 -2.1875 4.328125 -3.769531 4.328125 -5.6875 C 4.328125 -10.28125 7.160156 -14.421875 12.828125 -18.109375 C 14.816406 -19.410156 16.785156 -20.472656 18.734375 -21.296875 C 20.691406 -22.117188 22.265625 -22.53125 23.453125 -22.53125 C 24.253906 -22.53125 24.878906 -22.300781 25.328125 -21.84375 C 25.785156 -21.394531 26.015625 -20.800781 26.015625 -20.0625 C 26.015625 -19.269531 25.785156 -18.390625 25.328125 -17.421875 Z M 23.375 -21.9375 C 22.125 -21.9375 20.59375 -21.195312 18.78125 -19.71875 C 16.96875 -18.25 15.210938 -16.492188 13.515625 -14.453125 C 11.816406 -12.410156 10.367188 -10.285156 9.171875 -8.078125 C 7.984375 -5.867188 7.390625 -4 7.390625 -2.46875 C 7.390625 -1.613281 7.601562 -0.929688 8.03125 -0.421875 C 8.457031 0.0859375 9.007812 0.34375 9.6875 0.34375 C 10.875 0.34375 12.347656 -0.535156 14.109375 -2.296875 C 15.867188 -4.054688 18.191406 -7.03125 21.078125 -11.21875 C 22.609375 -13.375 23.710938 -15.128906 24.390625 -16.484375 C 25.078125 -17.847656 25.421875 -18.925781 25.421875 -19.71875 C 25.421875 -21.195312 24.738281 -21.9375 23.375 -21.9375 Z M 23.375 -21.9375 "/></g></g></g><g fill="#766a62" fill-opacity="1"><g transform="translate(208.665587, 95.052933)"><g><path d="M 77.1875 -50.3125 C 81.769531 -47.144531 84.0625 -43.460938 84.0625 -39.265625 C 84.0625 -37.515625 83.648438 -35.859375 82.828125 -34.296875 C 82.003906 -32.734375 80.898438 -31.382812 79.515625 -30.25 C 78.128906 -29.125 76.484375 -28.21875 74.578125 -27.53125 C 72.679688 -26.851562 70.660156 -26.515625 68.515625 -26.515625 C 67.890625 -26.515625 67.25 -26.554688 66.59375 -26.640625 C 65.945312 -26.734375 65.335938 -26.847656 64.765625 -26.984375 C 64.203125 -27.128906 63.734375 -27.285156 63.359375 -27.453125 C 62.992188 -27.617188 62.8125 -27.789062 62.8125 -27.96875 C 62.8125 -28.195312 62.925781 -28.3125 63.15625 -28.3125 C 63.207031 -28.3125 63.257812 -28.296875 63.3125 -28.265625 C 63.375 -28.234375 63.519531 -28.160156 63.75 -28.046875 C 64.3125 -27.765625 64.988281 -27.550781 65.78125 -27.40625 C 66.582031 -27.269531 67.347656 -27.203125 68.078125 -27.203125 C 69.785156 -27.203125 71.375 -27.554688 72.84375 -28.265625 C 74.320312 -28.972656 75.613281 -29.945312 76.71875 -31.1875 C 77.820312 -32.4375 78.695312 -33.867188 79.34375 -35.484375 C 80 -37.097656 80.328125 -38.84375 80.328125 -40.71875 C 80.328125 -42.414062 79.957031 -44.039062 79.21875 -45.59375 C 78.476562 -47.15625 77.457031 -48.503906 76.15625 -49.640625 C 74.34375 -48.273438 72.710938 -46.828125 71.265625 -45.296875 C 69.828125 -43.773438 68.382812 -41.9375 66.9375 -39.78125 C 65.488281 -37.625 63.984375 -35.03125 62.421875 -32 C 60.867188 -28.96875 59.070312 -25.269531 57.03125 -20.90625 C 55.957031 -18.695312 54.820312 -16.6875 53.625 -14.875 C 52.4375 -13.0625 51.117188 -11.414062 49.671875 -9.9375 C 48.234375 -8.46875 46.648438 -7.125 44.921875 -5.90625 C 43.191406 -4.6875 41.25 -3.539062 39.09375 -2.46875 C 33.488281 0.3125 28.421875 1.703125 23.890625 1.703125 C 19.523438 1.703125 16.066406 0.613281 13.515625 -1.5625 C 10.960938 -3.75 9.6875 -6.710938 9.6875 -10.453125 C 9.6875 -13.742188 10.90625 -17.113281 13.34375 -20.5625 C 13.226562 -20.90625 13.171875 -21.191406 13.171875 -21.421875 C 13.171875 -21.648438 13.171875 -21.90625 13.171875 -22.1875 C 13.171875 -25.019531 13.738281 -27.8125 14.875 -30.5625 C 16.007812 -33.3125 17.59375 -35.929688 19.625 -38.421875 C 21.664062 -40.910156 24.0625 -43.21875 26.8125 -45.34375 C 29.5625 -47.46875 32.550781 -49.304688 35.78125 -50.859375 C 39.007812 -52.421875 42.410156 -53.640625 45.984375 -54.515625 C 49.554688 -55.398438 53.179688 -55.84375 56.859375 -55.84375 C 60.597656 -55.84375 64.164062 -55.398438 67.5625 -54.515625 C 70.96875 -53.640625 73.945312 -52.382812 76.5 -50.75 C 79.164062 -52.382812 81.570312 -53.570312 83.71875 -54.3125 C 85.875 -55.050781 88.03125 -55.421875 90.1875 -55.421875 C 91.9375 -55.421875 93.546875 -55.125 95.015625 -54.53125 C 96.492188 -53.9375 97.769531 -53.113281 98.84375 -52.0625 C 99.925781 -51.007812 100.765625 -49.742188 101.359375 -48.265625 C 101.953125 -46.796875 102.25 -45.210938 102.25 -43.515625 C 102.25 -42.722656 102.21875 -41.929688 102.15625 -41.140625 C 102.101562 -40.347656 102.003906 -39.640625 101.859375 -39.015625 C 101.722656 -38.390625 101.582031 -37.878906 101.4375 -37.484375 C 101.300781 -37.085938 101.148438 -36.890625 100.984375 -36.890625 C 100.804688 -36.890625 100.71875 -37.003906 100.71875 -37.234375 C 100.71875 -37.453125 100.75 -37.675781 100.8125 -37.90625 C 101.09375 -38.925781 101.273438 -39.804688 101.359375 -40.546875 C 101.441406 -41.285156 101.484375 -42.109375 101.484375 -43.015625 C 101.484375 -46.578125 100.445312 -49.40625 98.375 -51.5 C 96.3125 -53.601562 93.523438 -54.65625 90.015625 -54.65625 C 88.035156 -54.65625 85.992188 -54.300781 83.890625 -53.59375 C 81.796875 -52.882812 79.5625 -51.789062 77.1875 -50.3125 Z M 75.484375 -50.15625 C 73.378906 -51.675781 70.679688 -52.875 67.390625 -53.75 C 64.109375 -54.632812 60.628906 -55.078125 56.953125 -55.078125 C 52.078125 -55.078125 47.316406 -54.210938 42.671875 -52.484375 C 38.023438 -50.753906 33.800781 -48.414062 30 -45.46875 C 26.207031 -42.53125 22.992188 -39.101562 20.359375 -35.1875 C 17.722656 -31.28125 16.007812 -27.171875 15.21875 -22.859375 C 16.570312 -24.273438 18.269531 -25.59375 20.3125 -26.8125 C 22.351562 -28.03125 24.335938 -28.894531 26.265625 -29.40625 C 27.335938 -31.332031 28.609375 -33.085938 30.078125 -34.671875 C 31.554688 -36.265625 33.101562 -37.625 34.71875 -38.75 C 36.332031 -39.882812 38.003906 -40.765625 39.734375 -41.390625 C 41.460938 -42.015625 43.148438 -42.328125 44.796875 -42.328125 C 46.773438 -42.328125 48.398438 -41.6875 49.671875 -40.40625 C 50.953125 -39.132812 51.59375 -37.476562 51.59375 -35.4375 C 51.59375 -33.0625 50.910156 -30.457031 49.546875 -27.625 C 48.191406 -24.789062 46.320312 -22.015625 43.9375 -19.296875 C 37.820312 -12.492188 31.648438 -9.09375 25.421875 -9.09375 C 22.179688 -9.09375 19.523438 -10 17.453125 -11.8125 C 15.390625 -13.625 14.050781 -16.175781 13.4375 -19.46875 C 11.445312 -16.40625 10.453125 -13.429688 10.453125 -10.546875 C 10.453125 -6.972656 11.640625 -4.148438 14.015625 -2.078125 C 16.398438 -0.015625 19.632812 1.015625 23.71875 1.015625 C 26.269531 1.015625 28.675781 0.648438 30.9375 -0.078125 C 33.207031 -0.816406 35.429688 -1.992188 37.609375 -3.609375 C 39.796875 -5.222656 41.953125 -7.332031 44.078125 -9.9375 C 46.203125 -12.550781 48.425781 -15.695312 50.75 -19.375 C 53.351562 -23.625 55.726562 -27.347656 57.875 -30.546875 C 60.03125 -33.753906 62.085938 -36.5625 64.046875 -38.96875 C 66.003906 -41.375 67.898438 -43.46875 69.734375 -45.25 C 71.578125 -47.039062 73.492188 -48.675781 75.484375 -50.15625 Z M 15.046875 -20.234375 C 15.046875 -17.003906 15.976562 -14.453125 17.84375 -12.578125 C 19.71875 -10.710938 22.242188 -9.78125 25.421875 -9.78125 C 28.703125 -9.78125 32.015625 -10.785156 35.359375 -12.796875 C 38.703125 -14.804688 41.816406 -17.679688 44.703125 -21.421875 C 46.691406 -23.910156 48.207031 -26.359375 49.25 -28.765625 C 50.300781 -31.179688 50.828125 -33.40625 50.828125 -35.4375 C 50.828125 -37.195312 50.285156 -38.671875 49.203125 -39.859375 C 48.128906 -41.054688 46.800781 -41.65625 45.21875 -41.65625 C 42.613281 -41.65625 39.878906 -40.601562 37.015625 -38.5 C 34.148438 -36.40625 31.554688 -33.570312 29.234375 -30 C 29.578125 -30.113281 29.875 -30.171875 30.125 -30.171875 C 30.382812 -30.171875 30.710938 -30.171875 31.109375 -30.171875 C 33.660156 -30.171875 35.6875 -29.601562 37.1875 -28.46875 C 38.6875 -27.34375 39.4375 -25.816406 39.4375 -23.890625 C 39.4375 -23.085938 39.320312 -22.6875 39.09375 -22.6875 C 38.875 -22.6875 38.765625 -22.972656 38.765625 -23.546875 C 38.816406 -25.359375 38.117188 -26.800781 36.671875 -27.875 C 35.234375 -28.957031 33.296875 -29.5 30.859375 -29.5 C 30.515625 -29.5 30.1875 -29.484375 29.875 -29.453125 C 29.5625 -29.421875 29.207031 -29.378906 28.8125 -29.328125 C 26.832031 -25.816406 25.84375 -22.8125 25.84375 -20.3125 C 25.84375 -19.125 26.164062 -18.132812 26.8125 -17.34375 C 27.46875 -16.550781 28.273438 -16.15625 29.234375 -16.15625 C 29.410156 -16.15625 29.523438 -16.179688 29.578125 -16.234375 L 29.828125 -16.234375 C 30.003906 -16.234375 30.09375 -16.148438 30.09375 -15.984375 C 30.09375 -15.703125 29.804688 -15.5625 29.234375 -15.5625 C 27.816406 -15.5625 26.625 -16.210938 25.65625 -17.515625 C 24.695312 -18.816406 24.21875 -20.457031 24.21875 -22.4375 C 24.21875 -24.363281 24.757812 -26.429688 25.84375 -28.640625 C 23.851562 -28.015625 21.910156 -27.078125 20.015625 -25.828125 C 18.117188 -24.585938 16.460938 -23.144531 15.046875 -21.5 Z M 15.046875 -20.234375 "/></g></g></g><g fill="#766a62" fill-opacity="1"><g transform="translate(273.177668, 95.052933)"><g><path d="M 26.09375 -9.6875 C 23.375 -6.289062 20.738281 -3.671875 18.1875 -1.828125 C 15.632812 0.015625 13.367188 0.9375 11.390625 0.9375 C 9.410156 0.9375 7.765625 0.242188 6.453125 -1.140625 C 5.148438 -2.535156 4.5 -4.28125 4.5 -6.375 C 4.5 -11.300781 7.984375 -15.691406 14.953125 -19.546875 C 18.640625 -21.535156 21.617188 -22.53125 23.890625 -22.53125 C 24.847656 -22.53125 25.679688 -22.226562 26.390625 -21.625 C 27.097656 -21.03125 27.453125 -20.3125 27.453125 -19.46875 C 27.453125 -17.476562 26.160156 -15.789062 23.578125 -14.40625 C 21.003906 -13.019531 16.660156 -11.703125 10.546875 -10.453125 C 9.742188 -9.203125 9.070312 -7.925781 8.53125 -6.625 C 8 -5.320312 7.734375 -4.21875 7.734375 -3.3125 C 7.734375 -2.238281 8.085938 -1.375 8.796875 -0.71875 C 9.503906 -0.0703125 10.425781 0.25 11.5625 0.25 C 13.601562 0.25 16.050781 -0.878906 18.90625 -3.140625 C 21.769531 -5.410156 24.675781 -8.554688 27.625 -12.578125 C 28.019531 -13.035156 28.300781 -13.265625 28.46875 -13.265625 C 28.582031 -13.265625 28.640625 -13.175781 28.640625 -13 C 28.640625 -12.945312 28.382812 -12.582031 27.875 -11.90625 Z M 10.875 -11.046875 C 12.863281 -11.554688 14.734375 -12.191406 16.484375 -12.953125 C 18.242188 -13.722656 19.757812 -14.53125 21.03125 -15.375 C 22.3125 -16.226562 23.316406 -17.109375 24.046875 -18.015625 C 24.785156 -18.921875 25.15625 -19.800781 25.15625 -20.65625 C 25.15625 -21.5625 24.675781 -22.015625 23.71875 -22.015625 C 22.976562 -22.015625 22.113281 -21.742188 21.125 -21.203125 C 20.132812 -20.671875 19.070312 -19.921875 17.9375 -18.953125 C 16.800781 -17.992188 15.625 -16.832031 14.40625 -15.46875 C 13.1875 -14.113281 12.007812 -12.640625 10.875 -11.046875 Z M 10.875 -11.046875 "/></g></g></g><g fill="#766a62" fill-opacity="1"><g transform="translate(294.086732, 95.052933)"><g><path d="M 19.203125 -32.890625 C 19.660156 -32.773438 20.03125 -32.691406 20.3125 -32.640625 C 20.59375 -32.585938 20.960938 -32.5625 21.421875 -32.5625 C 22.160156 -32.5625 23.066406 -32.671875 24.140625 -32.890625 L 11.8125 -13 C 13.289062 -14.925781 14.550781 -16.515625 15.59375 -17.765625 C 16.644531 -19.015625 17.550781 -19.992188 18.3125 -20.703125 C 19.082031 -21.410156 19.765625 -21.890625 20.359375 -22.140625 C 20.953125 -22.398438 21.585938 -22.53125 22.265625 -22.53125 C 23.742188 -22.53125 24.976562 -21.890625 25.96875 -20.609375 C 26.957031 -19.335938 27.453125 -17.765625 27.453125 -15.890625 C 27.453125 -11.359375 24.648438 -7.25 19.046875 -3.5625 C 17.054688 -2.257812 15.066406 -1.179688 13.078125 -0.328125 C 11.097656 0.515625 9.515625 0.9375 8.328125 0.9375 C 6.566406 0.9375 5.6875 0.113281 5.6875 -1.53125 C 5.6875 -1.8125 5.710938 -2.09375 5.765625 -2.375 C 5.828125 -2.664062 5.945312 -3.0625 6.125 -3.5625 L -9.78125 22.953125 C -10.738281 22.722656 -11.53125 22.609375 -12.15625 22.609375 C -12.601562 22.609375 -13.023438 22.632812 -13.421875 22.6875 C -13.828125 22.75 -14.3125 22.894531 -14.875 23.125 Z M 22.015625 -21.9375 C 20.941406 -21.9375 19.609375 -21.15625 18.015625 -19.59375 C 16.429688 -18.03125 14.363281 -15.550781 11.8125 -12.15625 C 8.132812 -7.050781 6.296875 -3.59375 6.296875 -1.78125 C 6.296875 -0.363281 6.945312 0.34375 8.25 0.34375 C 9.09375 0.34375 10.082031 0.00390625 11.21875 -0.671875 C 12.351562 -1.359375 13.515625 -2.253906 14.703125 -3.359375 C 15.890625 -4.460938 17.0625 -5.707031 18.21875 -7.09375 C 19.382812 -8.488281 20.421875 -9.90625 21.328125 -11.34375 C 22.234375 -12.789062 22.96875 -14.207031 23.53125 -15.59375 C 24.101562 -16.988281 24.390625 -18.191406 24.390625 -19.203125 C 24.390625 -20.003906 24.175781 -20.660156 23.75 -21.171875 C 23.332031 -21.679688 22.753906 -21.9375 22.015625 -21.9375 Z M 22.015625 -21.9375 "/></g></g></g><g fill="#766a62" fill-opacity="1"><g transform="translate(316.610718, 95.052933)"><g><path d="M 12.0625 -17.84375 C 13.257812 -19.257812 14.097656 -20.265625 14.578125 -20.859375 C 15.054688 -21.460938 15.550781 -22.101562 16.0625 -22.78125 C 16.519531 -24.707031 17.226562 -26.363281 18.1875 -27.75 C 19.15625 -29.132812 20.117188 -29.828125 21.078125 -29.828125 C 21.535156 -29.828125 21.765625 -29.601562 21.765625 -29.15625 C 21.765625 -28.59375 21.351562 -27.769531 20.53125 -26.6875 C 19.707031 -25.613281 18.390625 -24.226562 16.578125 -22.53125 C 16.398438 -21.675781 16.3125 -20.9375 16.3125 -20.3125 C 16.3125 -19.75 16.335938 -19.253906 16.390625 -18.828125 C 16.453125 -18.398438 16.554688 -17.929688 16.703125 -17.421875 C 16.847656 -16.910156 17.0625 -16.285156 17.34375 -15.546875 C 17.625 -14.816406 18.019531 -13.859375 18.53125 -12.671875 C 18.976562 -11.703125 19.273438 -10.878906 19.421875 -10.203125 C 19.566406 -9.523438 19.640625 -8.875 19.640625 -8.25 C 19.640625 -7 19.3125 -5.820312 18.65625 -4.71875 C 18.007812 -3.613281 17.128906 -2.632812 16.015625 -1.78125 C 14.910156 -0.9375 13.609375 -0.273438 12.109375 0.203125 C 10.609375 0.691406 9.035156 0.9375 7.390625 0.9375 C 5.523438 0.9375 4.023438 0.414062 2.890625 -0.625 C 1.753906 -1.675781 1.1875 -3.113281 1.1875 -4.9375 C 1.1875 -5.945312 1.398438 -6.988281 1.828125 -8.0625 C 2.253906 -9.144531 2.789062 -10.125 3.4375 -11 C 4.09375 -11.882812 4.816406 -12.59375 5.609375 -13.125 C 6.398438 -13.664062 7.191406 -13.9375 7.984375 -13.9375 C 8.273438 -13.9375 8.53125 -13.878906 8.75 -13.765625 Z M 9.265625 -13.515625 C 9.773438 -13.054688 10.03125 -12.519531 10.03125 -11.90625 C 10.03125 -10.257812 8.695312 -9.148438 6.03125 -8.578125 C 4.894531 -8.296875 3.945312 -7.703125 3.1875 -6.796875 C 2.425781 -5.890625 2.046875 -4.925781 2.046875 -3.90625 C 2.046875 -2.769531 2.441406 -1.832031 3.234375 -1.09375 C 4.023438 -0.363281 5.015625 0 6.203125 0 C 7.390625 0 8.5625 -0.363281 9.71875 -1.09375 C 10.882812 -1.832031 11.9375 -2.8125 12.875 -4.03125 C 13.8125 -5.25 14.5625 -6.625 15.125 -8.15625 C 15.695312 -9.6875 15.984375 -11.21875 15.984375 -12.75 C 15.984375 -13.09375 15.984375 -13.472656 15.984375 -13.890625 C 15.984375 -14.316406 15.953125 -14.757812 15.890625 -15.21875 C 15.835938 -16.007812 15.8125 -16.671875 15.8125 -17.203125 C 15.8125 -17.742188 15.8125 -18.242188 15.8125 -18.703125 C 15.8125 -19.328125 15.8125 -19.847656 15.8125 -20.265625 C 15.8125 -20.691406 15.867188 -21.21875 15.984375 -21.84375 C 14.503906 -20.03125 13.269531 -18.484375 12.28125 -17.203125 C 11.289062 -15.929688 10.285156 -14.703125 9.265625 -13.515625 Z M 9.265625 -13.515625 "/></g></g></g></svg>